<svg width="70" height="64" viewBox="0 0 70 64" fill="none" xmlns="http://www.w3.org/2000/svg">
<path fill-rule="evenodd" clip-rule="evenodd" d="M61.5323 35.2458C63.8857 37.6917 64.9585 40.2707 64.9585 42.6677C64.9585 46.25 62.5622 50.2387 57.0767 53.5824C51.6626 56.8825 43.8695 59.0843 34.9973 59.0843C26.1252 59.0843 18.3321 56.8825 12.918 53.5824C7.43244 50.2387 5.03614 46.25 5.03614 42.6677L0 42.6668C0 54.4483 15.6688 64 34.9973 64C54.3258 64 69.9947 54.4492 69.9947 42.6677C69.9947 30.8862 54.3258 21.3354 34.9973 21.3354C24.3905 21.3354 14.8858 24.2116 8.46774 28.7542C6.11435 26.3083 5.04146 23.7293 5.04146 21.3323C5.04146 17.75 7.43776 13.7613 12.9233 10.4176C18.3374 7.11749 26.1305 4.9157 35.0027 4.9157C43.8748 4.9157 51.6679 7.11749 57.082 10.4176C62.5676 13.7613 64.9639 17.75 64.9639 21.3323L70 21.3332C70 9.55171 54.3312 0 35.0027 0C15.6742 0 0.00531634 9.55079 0.00531634 21.3323C0.00531634 33.1138 15.6742 42.6646 35.0027 42.6646C45.6095 42.6646 55.1142 39.7884 61.5323 35.2458ZM57.4771 32.0017C57.3455 31.9184 57.212 31.8355 57.0767 31.753C51.6626 28.4529 43.8695 26.2511 34.9973 26.2511C26.1252 26.2511 18.3321 28.4529 12.918 31.753C12.7845 31.8344 12.6528 31.9162 12.5229 31.9983C12.6545 32.0816 12.788 32.1645 12.9233 32.247C18.3374 35.5471 26.1305 37.7489 35.0027 37.7489C43.8748 37.7489 51.6679 35.5471 57.082 32.247C57.2155 32.1656 57.3472 32.0838 57.4771 32.0017Z" fill="#271F4E"/>
</svg>
