<svg width="320" height="48" viewBox="0 0 320 48" fill="none" xmlns="http://www.w3.org/2000/svg">
<path d="M13.2236 0H48.9762V4.08H13.2236C8.20351 4.08 4.10176 8.1 4.10176 13.02C4.10176 18 8.20351 22.02 13.2236 22.02H35.6914C42.9766 22.02 48.9762 27.84 48.9762 35.04C48.9762 42.18 42.9766 48 35.6914 48H0V43.98H35.6914C40.7114 43.98 44.8132 39.96 44.8132 35.04C44.8132 30.06 40.7114 26.04 35.6914 26.04H13.2236C5.93836 26.04 0 20.22 0 13.02C0 5.88 5.93836 0 13.2236 0Z" fill="#271F4E"/>
<path d="M106.462 48V0H110.564L110.625 48H106.462Z" fill="#271F4E"/>
<path d="M192.636 0C206.104 0 217.124 10.8 217.124 24V48H212.961V24C212.961 13.02 203.839 4.08 192.636 4.08C181.371 4.08 172.249 13.02 172.249 24V48H168.148V24C168.148 10.8 179.106 0 192.636 0Z" fill="#271F4E"/>
<path d="M271.024 4.08V0H320V4.08H297.532V48H293.43V4.08H271.024Z" fill="#271F4E"/>
</svg>
